<svg width="800" height="480" viewBox="0 0 800 480" fill="none" xmlns="http://www.w3.org/2000/svg" role="img" aria-labelledby="title desc">
  <title id="title">Stylised solar array feeding an analytics dashboard</title>
  <desc id="desc">A group of solar panels sends data streams into a dashboard with charts and metrics.</desc>
  <defs>
    <linearGradient id="sky" x1="400" y1="0" x2="400" y2="480" gradientUnits="userSpaceOnUse">
      <stop stop-color="#0F172A" />
      <stop offset="1" stop-color="#1E293B" />
    </linearGradient>
    <linearGradient id="panel" x1="0" y1="0" x2="160" y2="120" gradientUnits="userSpaceOnUse">
      <stop offset="0" stop-color="#1E3A8A" />
      <stop offset="1" stop-color="#2563EB" />
    </linearGradient>
  </defs>
  <rect width="800" height="480" rx="32" fill="url(#sky)" />
  <rect x="420" y="48" width="320" height="200" rx="16" fill="#0B1120" stroke="#334155" stroke-width="2" />
  <rect x="448" y="80" width="120" height="28" rx="6" fill="#1E293B" />
  <rect x="448" y="120" width="264" height="120" rx="12" fill="#111827" />
  <path d="M468 220C508 180 540 240 580 200C620 160 644 224 684 184" stroke="#F97316" stroke-width="6" stroke-linecap="round" fill="none" />
  <path d="M468 206C508 166 540 226 580 186C620 146 644 210 684 170" stroke="#22D3EE" stroke-width="4" stroke-linecap="round" stroke-dasharray="12 12" fill="none" />
  <g opacity="0.8">
    <rect x="60" y="220" width="260" height="152" rx="18" fill="#0F172A" stroke="#1E293B" stroke-width="2" />
    <rect x="76" y="242" width="228" height="110" rx="12" fill="#0B1120" />
    <g transform="translate(90 254)">
      <rect width="60" height="80" rx="8" fill="url(#panel)" />
      <rect x="70" width="60" height="80" rx="8" fill="url(#panel)" />
      <rect x="140" width="60" height="80" rx="8" fill="url(#panel)" />
    </g>
    <path d="M210 262L468 178" stroke="#F97316" stroke-width="3" stroke-linecap="round" stroke-dasharray="10 10" />
    <path d="M210 288L468 198" stroke="#38BDF8" stroke-width="3" stroke-linecap="round" stroke-dasharray="6 8" />
  </g>
  <circle cx="640" cy="95" r="7" fill="#22C55E" />
  <circle cx="662" cy="95" r="7" fill="#22D3EE" />
  <circle cx="684" cy="95" r="7" fill="#F97316" />
</svg>
