<svg width="820" height="360" viewBox="0 0 820 360" fill="none" xmlns="http://www.w3.org/2000/svg" role="img" aria-labelledby="title desc">
  <title id="title">Infrastructure flow diagram</title>
  <desc id="desc">Shows collectors, streaming ingestion, analytics, storage, and operator console.</desc>
  <defs>
    <linearGradient id="box" x1="0" y1="0" x2="1" y2="1">
      <stop offset="0" stop-color="#1E3A8A" />
      <stop offset="1" stop-color="#2563EB" />
    </linearGradient>
  </defs>
  <rect width="820" height="360" rx="32" fill="#0F172A" />
  <g font-family="'Inter', sans-serif" fill="#E2E8F0" font-size="16">
    <g transform="translate(56 70)">
      <rect width="150" height="120" rx="20" fill="#111C30" stroke="#1E293B" stroke-width="2" />
      <text x="75" y="42" text-anchor="middle">Edge</text>
      <text x="75" y="64" text-anchor="middle">Collectors</text>
      <circle cx="50" cy="90" r="12" fill="#1E3A8A" />
      <circle cx="75" cy="90" r="12" fill="#2563EB" />
      <circle cx="100" cy="90" r="12" fill="#38BDF8" />
    </g>
    <g transform="translate(252 70)">
      <rect width="150" height="120" rx="20" fill="#111C30" stroke="#1E293B" stroke-width="2" />
      <text x="75" y="50" text-anchor="middle">Streaming</text>
      <text x="75" y="72" text-anchor="middle">Ingestion</text>
      <rect x="30" y="86" width="90" height="12" rx="6" fill="#22D3EE" />
    </g>
    <g transform="translate(448 50)">
      <rect width="150" height="160" rx="20" fill="#111C30" stroke="#1E293B" stroke-width="2" />
      <text x="75" y="48" text-anchor="middle">Analytics</text>
      <text x="75" y="70" text-anchor="middle">Jobs</text>
      <rect x="40" y="92" width="70" height="12" rx="6" fill="#F97316" />
      <rect x="40" y="116" width="92" height="12" rx="6" fill="#22D3EE" />
      <rect x="40" y="140" width="60" height="12" rx="6" fill="#38BDF8" />
    </g>
    <g transform="translate(644 50)">
      <rect width="120" height="80" rx="20" fill="#111C30" stroke="#1E293B" stroke-width="2" />
      <text x="60" y="40" text-anchor="middle">Operators</text>
      <text x="60" y="60" text-anchor="middle">Console</text>
    </g>
    <g transform="translate(644 180)">
      <rect width="120" height="80" rx="20" fill="#111C30" stroke="#1E293B" stroke-width="2" />
      <text x="60" y="44" text-anchor="middle">Data Lake</text>
    </g>
  </g>
  <path d="M206 130H246" stroke="url(#box)" stroke-width="4" stroke-linecap="round" />
  <path d="M402 130H442" stroke="url(#box)" stroke-width="4" stroke-linecap="round" />
  <path d="M598 90H636" stroke="url(#box)" stroke-width="4" stroke-linecap="round" />
  <path d="M598 210H636" stroke="url(#box)" stroke-width="4" stroke-linecap="round" />
  <path d="M704 130V180" stroke="#22D3EE" stroke-width="4" stroke-linecap="round" stroke-dasharray="12 12" />
  <text x="322" y="154" fill="#94A3B8" font-size="14" text-anchor="middle">Kafka + Pub/Sub</text>
  <text x="522" y="208" fill="#94A3B8" font-size="14" text-anchor="middle">Flink · BigQuery</text>
  <text x="704" y="250" fill="#94A3B8" font-size="14" text-anchor="middle">GCS · Backups</text>
</svg>
